<svg width="108" height="31" viewBox="0 0 108 31" fill="none" xmlns="http://www.w3.org/2000/svg">
<g clip-path="url(#clip0_8_9)">
<path d="M14.2947 18.9203C16.2104 18.9203 17.7634 17.389 17.7634 15.5C17.7634 13.611 16.2104 12.0797 14.2947 12.0797C12.379 12.0797 10.826 13.611 10.826 15.5C10.826 17.389 12.379 18.9203 14.2947 18.9203Z" fill="#5E17EB"/>
<path d="M15.4704 1.04528C8.08722 0.479201 1.74159 5.29436 0.0381315 11.9325C-0.0559824 12.3002 0.223418 12.658 0.608108 12.658H6.64669C6.8755 12.658 7.08549 12.5287 7.17961 12.3234C8.41191 9.64436 11.1542 7.7843 14.3358 7.80054C18.6544 7.82258 22.1584 11.3432 22.1025 15.6015C22.0472 19.8071 18.5727 23.2001 14.2946 23.2001C11.1042 23.2001 8.36132 21.3134 7.14961 18.61C7.05608 18.4012 6.84491 18.2672 6.61316 18.2672H0.589286C0.209301 18.2672 -0.0742169 18.6181 0.0169559 18.9824C1.59866 25.3084 7.39019 30 14.294 30C22.809 30 29.634 22.8637 28.9523 14.3255C28.3876 7.24954 22.6472 1.59512 15.4704 1.04528Z" fill="#5E17EB"/>
</g>
<path d="M45.5547 9.39062C46.8516 9.39062 47.8984 9.75781 48.6953 10.4922C49.4922 11.2266 49.8906 12.1797 49.8906 13.3516C49.8906 14.1641 49.6953 14.8828 49.3047 15.5078C48.9297 16.1172 48.4141 16.5781 47.7578 16.8906C48.6328 17.1875 49.3281 17.6953 49.8438 18.4141C50.3594 19.1172 50.6172 19.9453 50.6172 20.8984C50.6172 22.1328 50.2188 23.125 49.4219 23.875C48.625 24.625 47.5781 25 46.2812 25H38.2422V9.39062H45.5547ZM45.2734 11.4297H40.5625V16.0234H45.2734C45.9609 16.0234 46.5 15.8125 46.8906 15.3906C47.2969 14.9688 47.5 14.3906 47.5 13.6562C47.5 12.9531 47.2969 12.4062 46.8906 12.0156C46.5 11.625 45.9609 11.4297 45.2734 11.4297ZM45.4844 18.0625H40.5625V22.9609H45.7656C46.5312 22.9609 47.1328 22.7578 47.5703 22.3516C48.0078 21.9297 48.2266 21.3516 48.2266 20.6172C48.2266 19.8359 47.9766 19.2188 47.4766 18.7656C46.9922 18.2969 46.3281 18.0625 45.4844 18.0625ZM62.8281 17.125V25H60.4844V22.9844C60.0625 23.6875 59.4922 24.2422 58.7734 24.6484C58.0703 25.0547 57.2812 25.2578 56.4062 25.2578C55.625 25.2578 54.9375 25.1094 54.3438 24.8125C53.75 24.5 53.2812 24.0703 52.9375 23.5234C52.5938 22.9609 52.4219 22.3281 52.4219 21.625C52.4219 20.6094 52.7266 19.8047 53.3359 19.2109C53.9453 18.6172 54.8203 18.2891 55.9609 18.2266L59.1953 17.9922C59.6641 17.9609 59.9922 17.8594 60.1797 17.6875C60.3828 17.5156 60.4844 17.25 60.4844 16.8906V16.8438C60.4844 16.2031 60.2266 15.6641 59.7109 15.2266C59.1953 14.7734 58.5625 14.5469 57.8125 14.5469C56.0625 14.5469 55.1016 15.2969 54.9297 16.7969H52.5156C52.5938 15.5625 53.1094 14.5781 54.0625 13.8438C55.0312 13.0938 56.2734 12.7188 57.7891 12.7188C58.7734 12.7188 59.6406 12.9062 60.3906 13.2812C61.1562 13.6562 61.75 14.1797 62.1719 14.8516C62.6094 15.5078 62.8281 16.2656 62.8281 17.125ZM54.7891 21.5312C54.7891 22.0938 55 22.5391 55.4219 22.8672C55.8594 23.1953 56.4453 23.3594 57.1797 23.3594C57.8047 23.3594 58.3672 23.2188 58.8672 22.9375C59.3672 22.6406 59.7578 22.2422 60.0391 21.7422C60.3359 21.2422 60.4844 20.6719 60.4844 20.0312V19.6328L56.7812 19.8672C55.4531 19.9609 54.7891 20.5156 54.7891 21.5312ZM76.5391 8.19531V25H74.2188V22.8203C73.7969 23.5859 73.2422 24.1875 72.5547 24.625C71.8672 25.0469 71.0859 25.2578 70.2109 25.2578C69.1797 25.2578 68.2734 25 67.4922 24.4844C66.7266 23.9531 66.125 23.2188 65.6875 22.2812C65.2656 21.3281 65.0547 20.2188 65.0547 18.9531C65.0547 17.6875 65.2656 16.5859 65.6875 15.6484C66.125 14.7109 66.7266 13.9844 67.4922 13.4688C68.2734 12.9531 69.1797 12.6953 70.2109 12.6953C71.0859 12.6953 71.8672 12.9062 72.5547 13.3281C73.2422 13.75 73.7969 14.3438 74.2188 15.1094V8.19531H76.5391ZM67.4453 18.9531C67.4453 20.2969 67.7422 21.3438 68.3359 22.0938C68.9297 22.8281 69.7578 23.1953 70.8203 23.1953C71.8984 23.1953 72.7344 22.8281 73.3281 22.0938C73.9219 21.3438 74.2188 20.2969 74.2188 18.9531C74.2188 17.625 73.9219 16.5938 73.3281 15.8594C72.7344 15.125 71.8984 14.7578 70.8203 14.7578C69.7578 14.7578 68.9297 15.125 68.3359 15.8594C67.7422 16.5938 67.4453 17.625 67.4453 18.9531Z" fill="#5E17EB"/>
<path d="M79.0781 17.3828C79.0781 15.7266 79.3672 14.2891 79.9453 13.0703C80.5234 11.8359 81.3281 10.875 82.3594 10.1875C83.4062 9.5 84.6172 9.15625 85.9922 9.15625C87.3672 9.15625 88.5703 9.5 89.6016 10.1875C90.6328 10.875 91.4375 11.8359 92.0156 13.0703C92.5938 14.2891 92.8828 15.7266 92.8828 17.3828C92.8828 18.9453 92.5938 20.3125 92.0156 21.4844C91.4375 22.6562 90.6328 23.5703 89.6016 24.2266C88.5703 24.8672 87.3672 25.1875 85.9922 25.1875C84.6172 25.1875 83.4062 24.8672 82.3594 24.2266C81.3281 23.5703 80.5234 22.6562 79.9453 21.4844C79.3672 20.3125 79.0781 18.9453 79.0781 17.3828ZM91.6172 17.3828C91.6172 15.1641 91.125 13.4375 90.1406 12.2031C89.1562 10.9688 87.7734 10.3516 85.9922 10.3516C84.1953 10.3516 82.8047 10.9688 81.8203 12.2031C80.8359 13.4375 80.3438 15.1641 80.3438 17.3828C80.3438 19.4609 80.8359 21.0859 81.8203 22.2578C82.8047 23.4141 84.1953 23.9922 85.9922 23.9922C87.7734 23.9922 89.1562 23.4141 90.1406 22.2578C91.125 21.0859 91.6172 19.4609 91.6172 17.3828ZM101.625 17.8984L99.8203 17.6641C98.3047 17.4766 97.1406 17.0469 96.3281 16.375C95.5312 15.7031 95.1328 14.7969 95.1328 13.6562C95.1328 12.2812 95.6172 11.1953 96.5859 10.3984C97.5703 9.58594 98.9062 9.17969 100.594 9.17969C102.219 9.17969 103.531 9.60938 104.531 10.4688C105.531 11.3125 106.102 12.4766 106.242 13.9609H105C104.812 12.7578 104.359 11.8672 103.641 11.2891C102.938 10.7109 101.914 10.4219 100.57 10.4219C99.2891 10.4219 98.2578 10.7109 97.4766 11.2891C96.7109 11.8672 96.3281 12.6406 96.3281 13.6094C96.3281 14.4062 96.625 15.0234 97.2188 15.4609C97.8281 15.8984 98.7266 16.1953 99.9141 16.3516L101.719 16.6094C104.938 17 106.547 18.4219 106.547 20.875C106.547 22.1875 106.047 23.2344 105.047 24.0156C104.062 24.7969 102.758 25.1875 101.133 25.1875C99.3359 25.1875 97.9062 24.75 96.8438 23.875C95.7812 23 95.1719 21.8516 95.0156 20.4297H96.3047C96.5078 21.6328 97 22.5234 97.7812 23.1016C98.5781 23.6797 99.7031 23.9688 101.156 23.9688C102.406 23.9688 103.414 23.6953 104.18 23.1484C104.945 22.5859 105.328 21.8281 105.328 20.875C105.328 19.1719 104.094 18.1797 101.625 17.8984Z" fill="#5E17EB"/>
<defs>
<clipPath id="clip0_8_9">
<rect width="29" height="29" fill="white" transform="translate(0 1)"/>
</clipPath>
</defs>
</svg>
