<svg width="48" height="65" viewBox="0 0 48 65" fill="none" xmlns="http://www.w3.org/2000/svg">
<g clip-path="url(#clip0_8_4)">
<path d="M23.7169 24.7176C26.3592 24.7176 28.5012 22.6055 28.5012 20C28.5012 17.3945 26.3592 15.2824 23.7169 15.2824C21.0745 15.2824 18.9325 17.3945 18.9325 20C18.9325 22.6055 21.0745 24.7176 23.7169 24.7176Z" fill="#5E17EB"/>
<path d="M25.3386 0.0624273C15.1549 -0.718373 6.40227 5.92323 4.05267 15.0792C3.92286 15.5864 4.30824 16.08 4.83885 16.08H13.1679C13.4835 16.08 13.7732 15.9016 13.903 15.6184C15.6027 11.9232 19.3851 9.35763 23.7736 9.38003C29.7303 9.41043 34.5634 14.2664 34.4863 20.14C34.4101 25.9408 29.6176 30.6208 23.7168 30.6208C19.3162 30.6208 15.5329 28.0184 13.8616 24.2896C13.7326 24.0016 13.4413 23.8168 13.1217 23.8168H4.81288C4.28877 23.8168 3.89771 24.3008 4.02346 24.8032C6.20512 33.5288 14.1934 40 23.716 40C35.4607 40 44.8745 30.1568 43.9342 18.38C43.1553 8.62003 35.2376 0.820827 25.3386 0.0624273Z" fill="#5E17EB"/>
</g>
<path d="M6.53125 50.5938C7.39583 50.5938 8.09375 50.8385 8.625 51.3281C9.15625 51.8177 9.42188 52.4531 9.42188 53.2344C9.42188 53.776 9.29167 54.2552 9.03125 54.6719C8.78125 55.0781 8.4375 55.3854 8 55.5938C8.58333 55.7917 9.04688 56.1302 9.39062 56.6094C9.73438 57.0781 9.90625 57.6302 9.90625 58.2656C9.90625 59.0885 9.64062 59.75 9.10938 60.25C8.57812 60.75 7.88021 61 7.01562 61H1.65625V50.5938H6.53125ZM6.34375 51.9531H3.20312V55.0156H6.34375C6.80208 55.0156 7.16146 54.875 7.42188 54.5938C7.69271 54.3125 7.82812 53.9271 7.82812 53.4375C7.82812 52.9688 7.69271 52.6042 7.42188 52.3438C7.16146 52.0833 6.80208 51.9531 6.34375 51.9531ZM6.48438 56.375H3.20312V59.6406H6.67188C7.18229 59.6406 7.58333 59.5052 7.875 59.2344C8.16667 58.9531 8.3125 58.5677 8.3125 58.0781C8.3125 57.5573 8.14583 57.1458 7.8125 56.8438C7.48958 56.5312 7.04688 56.375 6.48438 56.375ZM18.0469 55.75V61H16.4844V59.6562C16.2031 60.125 15.8229 60.4948 15.3438 60.7656C14.875 61.0365 14.349 61.1719 13.7656 61.1719C13.2448 61.1719 12.7865 61.0729 12.3906 60.875C11.9948 60.6667 11.6823 60.3802 11.4531 60.0156C11.224 59.6406 11.1094 59.2188 11.1094 58.75C11.1094 58.0729 11.3125 57.5365 11.7188 57.1406C12.125 56.7448 12.7083 56.526 13.4688 56.4844L15.625 56.3281C15.9375 56.3073 16.1562 56.2396 16.2812 56.125C16.4167 56.0104 16.4844 55.8333 16.4844 55.5938V55.5625C16.4844 55.1354 16.3125 54.776 15.9688 54.4844C15.625 54.1823 15.2031 54.0312 14.7031 54.0312C13.5365 54.0312 12.8958 54.5312 12.7812 55.5312H11.1719C11.224 54.7083 11.5677 54.0521 12.2031 53.5625C12.849 53.0625 13.6771 52.8125 14.6875 52.8125C15.3438 52.8125 15.9219 52.9375 16.4219 53.1875C16.9323 53.4375 17.3281 53.7865 17.6094 54.2344C17.901 54.6719 18.0469 55.1771 18.0469 55.75ZM12.6875 58.6875C12.6875 59.0625 12.8281 59.3594 13.1094 59.5781C13.401 59.7969 13.7917 59.9062 14.2812 59.9062C14.6979 59.9062 15.0729 59.8125 15.4062 59.625C15.7396 59.4271 16 59.1615 16.1875 58.8281C16.3854 58.4948 16.4844 58.1146 16.4844 57.6875V57.4219L14.0156 57.5781C13.1302 57.6406 12.6875 58.0104 12.6875 58.6875ZM27.1875 49.7969V61H25.6406V59.5469C25.3594 60.0573 24.9896 60.4583 24.5312 60.75C24.0729 61.0312 23.5521 61.1719 22.9688 61.1719C22.2812 61.1719 21.6771 61 21.1562 60.6562C20.6458 60.3021 20.2448 59.8125 19.9531 59.1875C19.6719 58.5521 19.5312 57.8125 19.5312 56.9688C19.5312 56.125 19.6719 55.3906 19.9531 54.7656C20.2448 54.1406 20.6458 53.6562 21.1562 53.3125C21.6771 52.9688 22.2812 52.7969 22.9688 52.7969C23.5521 52.7969 24.0729 52.9375 24.5312 53.2188C24.9896 53.5 25.3594 53.8958 25.6406 54.4062V49.7969H27.1875ZM21.125 56.9688C21.125 57.8646 21.3229 58.5625 21.7188 59.0625C22.1146 59.5521 22.6667 59.7969 23.375 59.7969C24.0938 59.7969 24.651 59.5521 25.0469 59.0625C25.4427 58.5625 25.6406 57.8646 25.6406 56.9688C25.6406 56.0833 25.4427 55.3958 25.0469 54.9062C24.651 54.4167 24.0938 54.1719 23.375 54.1719C22.6667 54.1719 22.1146 54.4167 21.7188 54.9062C21.3229 55.3958 21.125 56.0833 21.125 56.9688Z" fill="#5E17EB"/>
<path d="M28.9844 55.9219C28.9844 54.8177 29.1771 53.8594 29.5625 53.0469C29.9479 52.224 30.4844 51.5833 31.1719 51.125C31.8698 50.6667 32.6771 50.4375 33.5938 50.4375C34.5104 50.4375 35.3125 50.6667 36 51.125C36.6875 51.5833 37.224 52.224 37.6094 53.0469C37.9948 53.8594 38.1875 54.8177 38.1875 55.9219C38.1875 56.9635 37.9948 57.875 37.6094 58.6562C37.224 59.4375 36.6875 60.0469 36 60.4844C35.3125 60.9115 34.5104 61.125 33.5938 61.125C32.6771 61.125 31.8698 60.9115 31.1719 60.4844C30.4844 60.0469 29.9479 59.4375 29.5625 58.6562C29.1771 57.875 28.9844 56.9635 28.9844 55.9219ZM37.3438 55.9219C37.3438 54.4427 37.0156 53.2917 36.3594 52.4688C35.7031 51.6458 34.7812 51.2344 33.5938 51.2344C32.3958 51.2344 31.4688 51.6458 30.8125 52.4688C30.1562 53.2917 29.8281 54.4427 29.8281 55.9219C29.8281 57.3073 30.1562 58.3906 30.8125 59.1719C31.4688 59.9427 32.3958 60.3281 33.5938 60.3281C34.7812 60.3281 35.7031 59.9427 36.3594 59.1719C37.0156 58.3906 37.3438 57.3073 37.3438 55.9219ZM44.0156 56.2656L42.8125 56.1094C41.8021 55.9844 41.026 55.6979 40.4844 55.25C39.9531 54.8021 39.6875 54.1979 39.6875 53.4375C39.6875 52.5208 40.0104 51.7969 40.6562 51.2656C41.3125 50.724 42.2031 50.4531 43.3281 50.4531C44.4115 50.4531 45.2865 50.7396 45.9531 51.3125C46.6198 51.875 47 52.651 47.0938 53.6406H46.2656C46.1406 52.8385 45.8385 52.2448 45.3594 51.8594C44.8906 51.474 44.2083 51.2812 43.3125 51.2812C42.4583 51.2812 41.7708 51.474 41.25 51.8594C40.7396 52.2448 40.4844 52.7604 40.4844 53.4062C40.4844 53.9375 40.6823 54.349 41.0781 54.6406C41.4844 54.9323 42.0833 55.1302 42.875 55.2344L44.0781 55.4062C46.224 55.6667 47.2969 56.6146 47.2969 58.25C47.2969 59.125 46.9635 59.8229 46.2969 60.3438C45.6406 60.8646 44.7708 61.125 43.6875 61.125C42.4896 61.125 41.5365 60.8333 40.8281 60.25C40.1198 59.6667 39.7135 58.901 39.6094 57.9531H40.4688C40.6042 58.7552 40.9323 59.349 41.4531 59.7344C41.9844 60.1198 42.7344 60.3125 43.7031 60.3125C44.5365 60.3125 45.2083 60.1302 45.7188 59.7656C46.2292 59.3906 46.4844 58.8854 46.4844 58.25C46.4844 57.1146 45.6615 56.4531 44.0156 56.2656Z" fill="#5E17EB"/>
<defs>
<clipPath id="clip0_8_4">
<rect width="40" height="40" fill="white" transform="translate(4)"/>
</clipPath>
</defs>
</svg>
