<svg width="109" height="31" viewBox="0 0 109 31" fill="none" xmlns="http://www.w3.org/2000/svg">
<g clip-path="url(#clip0_8_5)">
<path d="M14.2947 18.9203C16.2104 18.9203 17.7634 17.389 17.7634 15.5C17.7634 13.611 16.2104 12.0797 14.2947 12.0797C12.379 12.0797 10.826 13.611 10.826 15.5C10.826 17.389 12.379 18.9203 14.2947 18.9203Z" fill="#5E17EB"/>
<path d="M15.4704 1.04528C8.08722 0.479202 1.74159 5.29436 0.0381315 11.9325C-0.0559824 12.3002 0.223418 12.658 0.608108 12.658H6.64669C6.8755 12.658 7.08549 12.5287 7.17961 12.3234C8.41191 9.64436 11.1542 7.7843 14.3358 7.80054C18.6544 7.82258 22.1584 11.3432 22.1025 15.6015C22.0472 19.8071 18.5727 23.2001 14.2946 23.2001C11.1042 23.2001 8.36132 21.3134 7.14961 18.61C7.05608 18.4012 6.84491 18.2672 6.61316 18.2672H0.589286C0.209301 18.2672 -0.0742169 18.6181 0.0169559 18.9824C1.59866 25.3084 7.39019 30 14.294 30C22.809 30 29.634 22.8637 28.9523 14.3255C28.3876 7.24954 22.6472 1.59512 15.4704 1.04528Z" fill="#5E17EB"/>
</g>
<path d="M45.5547 9.39062C48.1328 9.39062 49.8906 10.9844 49.8906 13.3516C49.8906 14.9688 49.0703 16.2578 47.7578 16.8906C49.5156 17.5 50.6172 18.9766 50.6172 20.8984C50.6172 23.3594 48.8828 25 46.2812 25H38.2422V9.39062H45.5547ZM45.2734 11.4297H40.5625V16.0234H45.2734C46.6328 16.0234 47.5 15.1094 47.5 13.6562C47.5 12.2734 46.6328 11.4297 45.2734 11.4297ZM45.4844 18.0625H40.5625V22.9609H45.7656C47.2891 22.9609 48.2266 22.0703 48.2266 20.6172C48.2266 19.0469 47.1719 18.0625 45.4844 18.0625ZM62.8281 17.125V25H60.4844V22.9844C59.6406 24.3906 58.1641 25.2578 56.4062 25.2578C54.0859 25.2578 52.4219 23.7578 52.4219 21.625C52.4219 19.5859 53.6875 18.3672 55.9609 18.2266L59.1953 17.9922C60.1328 17.9219 60.4844 17.6172 60.4844 16.8906V16.8438C60.4844 15.5547 59.3125 14.5469 57.8125 14.5469C56.0547 14.5469 55.0938 15.2969 54.9297 16.7969H52.5156C52.6797 14.3125 54.7422 12.7188 57.7891 12.7188C60.7422 12.7188 62.8281 14.5703 62.8281 17.125ZM54.7891 21.5312C54.7891 22.6328 55.7266 23.3594 57.1797 23.3594C59.0781 23.3594 60.4844 21.9297 60.4844 20.0312V19.6328L56.7812 19.8672C55.4688 19.9609 54.7891 20.5234 54.7891 21.5312ZM76.5391 8.19531V25H74.2188V22.8203C73.375 24.3672 71.9688 25.2578 70.2109 25.2578C67.1172 25.2578 65.0547 22.75 65.0547 18.9531C65.0547 15.1797 67.1172 12.6953 70.2109 12.6953C71.9688 12.6953 73.375 13.5859 74.2188 15.1094V8.19531H76.5391ZM67.4453 18.9531C67.4453 21.6484 68.6875 23.1953 70.8203 23.1953C72.9766 23.1953 74.2188 21.6484 74.2188 18.9531C74.2188 16.3047 72.9766 14.7578 70.8203 14.7578C68.6875 14.7578 67.4453 16.3047 67.4453 18.9531Z" fill="#5E17EB"/>
<path d="M79.0078 17.3828C79.0078 15.7266 79.3047 14.2891 79.8984 13.0703C80.4922 11.8359 81.3203 10.875 82.3828 10.1875C83.4609 9.5 84.7188 9.15625 86.1562 9.15625C87.5781 9.15625 88.8203 9.5 89.8828 10.1875C90.9609 10.875 91.7969 11.8359 92.3906 13.0703C92.9844 14.2891 93.2812 15.7266 93.2812 17.3828C93.2812 18.9453 92.9844 20.3125 92.3906 21.4844C91.7969 22.6562 90.9609 23.5703 89.8828 24.2266C88.8203 24.8672 87.5781 25.1875 86.1562 25.1875C84.7188 25.1875 83.4609 24.8672 82.3828 24.2266C81.3203 23.5703 80.4922 22.6562 79.8984 21.4844C79.3047 20.3125 79.0078 18.9453 79.0078 17.3828ZM90.8906 17.3828C90.8906 15.4766 90.4766 13.9922 89.6484 12.9297C88.8203 11.8516 87.6562 11.3125 86.1562 11.3125C84.6406 11.3125 83.4609 11.8516 82.6172 12.9297C81.7891 13.9922 81.375 15.4766 81.375 17.3828C81.375 19.1641 81.7891 20.5547 82.6172 21.5547C83.4609 22.5391 84.6406 23.0312 86.1562 23.0312C87.6562 23.0312 88.8203 22.5391 89.6484 21.5547C90.4766 20.5547 90.8906 19.1641 90.8906 17.3828ZM102.188 18.4375L100.078 18.2031C98.5625 18.0312 97.3984 17.5781 96.5859 16.8438C95.7891 16.0938 95.3906 15.0859 95.3906 13.8203C95.3906 12.3984 95.9062 11.2734 96.9375 10.4453C97.9688 9.60156 99.375 9.17969 101.156 9.17969C102.875 9.17969 104.266 9.61719 105.328 10.4922C106.391 11.3516 106.992 12.5312 107.133 14.0312H104.766C104.609 13.0625 104.234 12.3438 103.641 11.875C103.062 11.4062 102.227 11.1719 101.133 11.1719C100.102 11.1719 99.2734 11.4062 98.6484 11.875C98.0234 12.3281 97.7109 12.9375 97.7109 13.7031C97.7109 14.3125 97.9375 14.7891 98.3906 15.1328C98.8594 15.4766 99.5391 15.7031 100.43 15.8125L102.445 16.0703C105.773 16.4453 107.438 17.9766 107.438 20.6641C107.438 21.5703 107.195 22.3672 106.711 23.0547C106.242 23.7266 105.578 24.25 104.719 24.625C103.859 25 102.852 25.1875 101.695 25.1875C99.8203 25.1875 98.3203 24.75 97.1953 23.875C96.0703 22.9844 95.4297 21.7969 95.2734 20.3125H97.6641C97.9922 22.2344 99.3438 23.1953 101.719 23.1953C102.734 23.1953 103.547 22.9688 104.156 22.5156C104.781 22.0625 105.094 21.4609 105.094 20.7109C105.094 19.4141 104.125 18.6562 102.188 18.4375Z" fill="#5E17EB"/>
<defs>
<clipPath id="clip0_8_5">
<rect width="29" height="29" fill="white" transform="translate(0 1)"/>
</clipPath>
</defs>
</svg>
