<svg width="64" height="65" viewBox="0 0 64 65" fill="none" xmlns="http://www.w3.org/2000/svg">
<g clip-path="url(#clip0_24_147)">
<path d="M31.7169 24.7176C34.3592 24.7176 36.5013 22.6055 36.5013 20C36.5013 17.3946 34.3592 15.2824 31.7169 15.2824C29.0745 15.2824 26.9325 17.3946 26.9325 20C26.9325 22.6055 29.0745 24.7176 31.7169 24.7176Z" fill="black"/>
<path d="M33.3386 0.0624273C23.1548 -0.718373 14.4023 5.92323 12.0527 15.0792C11.9228 15.5864 12.3082 16.08 12.8388 16.08H21.1679C21.4835 16.08 21.7732 15.9016 21.903 15.6184C23.6027 11.9232 27.3851 9.35763 31.7736 9.38003C37.7303 9.41043 42.5634 14.2664 42.4863 20.14C42.41 25.9408 37.6175 30.6208 31.7168 30.6208C27.3161 30.6208 23.5329 28.0184 21.8616 24.2896C21.7326 24.0016 21.4413 23.8168 21.1217 23.8168H12.8129C12.2888 23.8168 11.8977 24.3008 12.0234 24.8032C14.2051 33.5288 22.1934 40 31.716 40C43.4607 40 52.8745 30.1568 51.9342 18.38C51.1553 8.62003 43.2376 0.820827 33.3386 0.0624273Z" fill="black"/>
</g>
<path d="M6.11719 50.5938C6.98177 50.5938 7.67969 50.8385 8.21094 51.3281C8.74219 51.8177 9.00781 52.4531 9.00781 53.2344C9.00781 53.776 8.8776 54.2552 8.61719 54.6719C8.36719 55.0781 8.02344 55.3854 7.58594 55.5938C8.16927 55.7917 8.63281 56.1302 8.97656 56.6094C9.32031 57.0781 9.49219 57.6302 9.49219 58.2656C9.49219 59.0885 9.22656 59.75 8.69531 60.25C8.16406 60.75 7.46615 61 6.60156 61H1.24219V50.5938H6.11719ZM5.92969 51.9531H2.78906V55.0156H5.92969C6.38802 55.0156 6.7474 54.875 7.00781 54.5938C7.27865 54.3125 7.41406 53.9271 7.41406 53.4375C7.41406 52.9688 7.27865 52.6042 7.00781 52.3438C6.7474 52.0833 6.38802 51.9531 5.92969 51.9531ZM6.07031 56.375H2.78906V59.6406H6.25781C6.76823 59.6406 7.16927 59.5052 7.46094 59.2344C7.7526 58.9531 7.89844 58.5677 7.89844 58.0781C7.89844 57.5573 7.73177 57.1458 7.39844 56.8438C7.07552 56.5312 6.63281 56.375 6.07031 56.375ZM17.6328 55.75V61H16.0703V59.6562C15.7891 60.125 15.4089 60.4948 14.9297 60.7656C14.4609 61.0365 13.9349 61.1719 13.3516 61.1719C12.8307 61.1719 12.3724 61.0729 11.9766 60.875C11.5807 60.6667 11.2682 60.3802 11.0391 60.0156C10.8099 59.6406 10.6953 59.2188 10.6953 58.75C10.6953 58.0729 10.8984 57.5365 11.3047 57.1406C11.7109 56.7448 12.2943 56.526 13.0547 56.4844L15.2109 56.3281C15.5234 56.3073 15.7422 56.2396 15.8672 56.125C16.0026 56.0104 16.0703 55.8333 16.0703 55.5938V55.5625C16.0703 55.1354 15.8984 54.776 15.5547 54.4844C15.2109 54.1823 14.7891 54.0312 14.2891 54.0312C13.1224 54.0312 12.4818 54.5312 12.3672 55.5312H10.7578C10.8099 54.7083 11.1536 54.0521 11.7891 53.5625C12.4349 53.0625 13.263 52.8125 14.2734 52.8125C14.9297 52.8125 15.5078 52.9375 16.0078 53.1875C16.5182 53.4375 16.9141 53.7865 17.1953 54.2344C17.487 54.6719 17.6328 55.1771 17.6328 55.75ZM12.2734 58.6875C12.2734 59.0625 12.4141 59.3594 12.6953 59.5781C12.987 59.7969 13.3776 59.9062 13.8672 59.9062C14.2839 59.9062 14.6589 59.8125 14.9922 59.625C15.3255 59.4271 15.5859 59.1615 15.7734 58.8281C15.9714 58.4948 16.0703 58.1146 16.0703 57.6875V57.4219L13.6016 57.5781C12.7161 57.6406 12.2734 58.0104 12.2734 58.6875ZM26.7734 49.7969V61H25.2266V59.5469C24.9453 60.0573 24.5755 60.4583 24.1172 60.75C23.6589 61.0312 23.138 61.1719 22.5547 61.1719C21.8672 61.1719 21.263 61 20.7422 60.6562C20.2318 60.3021 19.8307 59.8125 19.5391 59.1875C19.2578 58.5521 19.1172 57.8125 19.1172 56.9688C19.1172 56.125 19.2578 55.3906 19.5391 54.7656C19.8307 54.1406 20.2318 53.6562 20.7422 53.3125C21.263 52.9688 21.8672 52.7969 22.5547 52.7969C23.138 52.7969 23.6589 52.9375 24.1172 53.2188C24.5755 53.5 24.9453 53.8958 25.2266 54.4062V49.7969H26.7734ZM20.7109 56.9688C20.7109 57.8646 20.9089 58.5625 21.3047 59.0625C21.7005 59.5521 22.2526 59.7969 22.9609 59.7969C23.6797 59.7969 24.237 59.5521 24.6328 59.0625C25.0286 58.5625 25.2266 57.8646 25.2266 56.9688C25.2266 56.0833 25.0286 55.3958 24.6328 54.9062C24.237 54.4167 23.6797 54.1719 22.9609 54.1719C22.2526 54.1719 21.7005 54.4167 21.3047 54.9062C20.9089 55.3958 20.7109 56.0833 20.7109 56.9688Z" fill="black"/>
<path d="M33.7812 50.5938C34.6458 50.5938 35.3438 50.8385 35.875 51.3281C36.4062 51.8177 36.6719 52.4531 36.6719 53.2344C36.6719 53.776 36.5417 54.2552 36.2812 54.6719C36.0312 55.0781 35.6875 55.3854 35.25 55.5938C35.8333 55.7917 36.2969 56.1302 36.6406 56.6094C36.9844 57.0781 37.1562 57.6302 37.1562 58.2656C37.1562 59.0885 36.8906 59.75 36.3594 60.25C35.8281 60.75 35.1302 61 34.2656 61H28.9062V50.5938H33.7812ZM33.5938 51.9531H30.4531V55.0156H33.5938C34.0521 55.0156 34.4115 54.875 34.6719 54.5938C34.9427 54.3125 35.0781 53.9271 35.0781 53.4375C35.0781 52.9688 34.9427 52.6042 34.6719 52.3438C34.4115 52.0833 34.0521 51.9531 33.5938 51.9531ZM33.7344 56.375H30.4531V59.6406H33.9219C34.4323 59.6406 34.8333 59.5052 35.125 59.2344C35.4167 58.9531 35.5625 58.5677 35.5625 58.0781C35.5625 57.5573 35.3958 57.1458 35.0625 56.8438C34.7396 56.5312 34.2969 56.375 33.7344 56.375ZM45.2969 55.75V61H43.7344V59.6562C43.4531 60.125 43.0729 60.4948 42.5938 60.7656C42.125 61.0365 41.599 61.1719 41.0156 61.1719C40.4948 61.1719 40.0365 61.0729 39.6406 60.875C39.2448 60.6667 38.9323 60.3802 38.7031 60.0156C38.474 59.6406 38.3594 59.2188 38.3594 58.75C38.3594 58.0729 38.5625 57.5365 38.9688 57.1406C39.375 56.7448 39.9583 56.526 40.7188 56.4844L42.875 56.3281C43.1875 56.3073 43.4062 56.2396 43.5312 56.125C43.6667 56.0104 43.7344 55.8333 43.7344 55.5938V55.5625C43.7344 55.1354 43.5625 54.776 43.2188 54.4844C42.875 54.1823 42.4531 54.0312 41.9531 54.0312C40.7865 54.0312 40.1458 54.5312 40.0312 55.5312H38.4219C38.474 54.7083 38.8177 54.0521 39.4531 53.5625C40.099 53.0625 40.9271 52.8125 41.9375 52.8125C42.5938 52.8125 43.1719 52.9375 43.6719 53.1875C44.1823 53.4375 44.5781 53.7865 44.8594 54.2344C45.151 54.6719 45.2969 55.1771 45.2969 55.75ZM39.9375 58.6875C39.9375 59.0625 40.0781 59.3594 40.3594 59.5781C40.651 59.7969 41.0417 59.9062 41.5312 59.9062C41.9479 59.9062 42.3229 59.8125 42.6562 59.625C42.9896 59.4271 43.25 59.1615 43.4375 58.8281C43.6354 58.4948 43.7344 58.1146 43.7344 57.6875V57.4219L41.2656 57.5781C40.3802 57.6406 39.9375 58.0104 39.9375 58.6875ZM52.4531 56.2656C52.4531 55.5469 52.276 55.0312 51.9219 54.7188C51.5677 54.3958 51.0938 54.2344 50.5 54.2344C49.9375 54.2344 49.4635 54.4167 49.0781 54.7812C48.6927 55.1354 48.5 55.5938 48.5 56.1562V61H46.9531V53H48.5V54.2188C48.8021 53.7604 49.1823 53.4115 49.6406 53.1719C50.099 52.9219 50.5625 52.7969 51.0312 52.7969C51.8958 52.7969 52.6042 53.0677 53.1562 53.6094C53.7188 54.1406 54 54.9167 54 55.9375V61H52.4531V56.2656ZM63.1094 49.7969V61H61.5625V59.5469C61.2812 60.0573 60.9115 60.4583 60.4531 60.75C59.9948 61.0312 59.474 61.1719 58.8906 61.1719C58.2031 61.1719 57.599 61 57.0781 60.6562C56.5677 60.3021 56.1667 59.8125 55.875 59.1875C55.5938 58.5521 55.4531 57.8125 55.4531 56.9688C55.4531 56.125 55.5938 55.3906 55.875 54.7656C56.1667 54.1406 56.5677 53.6562 57.0781 53.3125C57.599 52.9688 58.2031 52.7969 58.8906 52.7969C59.474 52.7969 59.9948 52.9375 60.4531 53.2188C60.9115 53.5 61.2812 53.8958 61.5625 54.4062V49.7969H63.1094ZM57.0469 56.9688C57.0469 57.8646 57.2448 58.5625 57.6406 59.0625C58.0365 59.5521 58.5885 59.7969 59.2969 59.7969C60.0156 59.7969 60.5729 59.5521 60.9688 59.0625C61.3646 58.5625 61.5625 57.8646 61.5625 56.9688C61.5625 56.0833 61.3646 55.3958 60.9688 54.9062C60.5729 54.4167 60.0156 54.1719 59.2969 54.1719C58.5885 54.1719 58.0365 54.4167 57.6406 54.9062C57.2448 55.3958 57.0469 56.0833 57.0469 56.9688Z" fill="black"/>
<defs>
<clipPath id="clip0_24_147">
<rect width="40" height="40" fill="white" transform="translate(12)"/>
</clipPath>
</defs>
</svg>
