<svg width="132" height="31" viewBox="0 0 132 31" fill="none" xmlns="http://www.w3.org/2000/svg">
<g clip-path="url(#clip0_23_196)">
<path d="M14.2947 18.9203C16.2104 18.9203 17.7634 17.389 17.7634 15.5C17.7634 13.611 16.2104 12.0797 14.2947 12.0797C12.379 12.0797 10.826 13.611 10.826 15.5C10.826 17.389 12.379 18.9203 14.2947 18.9203Z" fill="#5E17EB"/>
<path d="M15.4705 1.04528C8.08722 0.479205 1.7416 5.29436 0.0381391 11.9325C-0.0559747 12.3002 0.223426 12.658 0.608116 12.658H6.64669C6.87551 12.658 7.0855 12.5287 7.17961 12.3234C8.41192 9.64436 11.1542 7.78431 14.3358 7.80054C18.6544 7.82259 22.1584 11.3432 22.1025 15.6015C22.0472 19.8071 18.5727 23.2001 14.2946 23.2001C11.1042 23.2001 8.36133 21.3134 7.14962 18.61C7.05609 18.4012 6.84492 18.2672 6.61317 18.2672H0.589293C0.209309 18.2672 -0.0742093 18.6181 0.0169635 18.9824C1.59866 25.3084 7.39019 30 14.294 30C22.809 30 29.634 22.8637 28.9523 14.3255C28.3876 7.24954 22.6472 1.59512 15.4705 1.04528Z" fill="#5E17EB"/>
</g>
<path d="M45.5547 9.39062C46.8516 9.39062 47.8984 9.75781 48.6953 10.4922C49.4922 11.2266 49.8906 12.1797 49.8906 13.3516C49.8906 14.1641 49.6953 14.8828 49.3047 15.5078C48.9297 16.1172 48.4141 16.5781 47.7578 16.8906C48.6328 17.1875 49.3281 17.6953 49.8438 18.4141C50.3594 19.1172 50.6172 19.9453 50.6172 20.8984C50.6172 22.1328 50.2188 23.125 49.4219 23.875C48.625 24.625 47.5781 25 46.2812 25H38.2422V9.39062H45.5547ZM45.2734 11.4297H40.5625V16.0234H45.2734C45.9609 16.0234 46.5 15.8125 46.8906 15.3906C47.2969 14.9688 47.5 14.3906 47.5 13.6562C47.5 12.9531 47.2969 12.4062 46.8906 12.0156C46.5 11.625 45.9609 11.4297 45.2734 11.4297ZM45.4844 18.0625H40.5625V22.9609H45.7656C46.5312 22.9609 47.1328 22.7578 47.5703 22.3516C48.0078 21.9297 48.2266 21.3516 48.2266 20.6172C48.2266 19.8359 47.9766 19.2188 47.4766 18.7656C46.9922 18.2969 46.3281 18.0625 45.4844 18.0625ZM62.8281 17.125V25H60.4844V22.9844C60.0625 23.6875 59.4922 24.2422 58.7734 24.6484C58.0703 25.0547 57.2812 25.2578 56.4062 25.2578C55.625 25.2578 54.9375 25.1094 54.3438 24.8125C53.75 24.5 53.2812 24.0703 52.9375 23.5234C52.5938 22.9609 52.4219 22.3281 52.4219 21.625C52.4219 20.6094 52.7266 19.8047 53.3359 19.2109C53.9453 18.6172 54.8203 18.2891 55.9609 18.2266L59.1953 17.9922C59.6641 17.9609 59.9922 17.8594 60.1797 17.6875C60.3828 17.5156 60.4844 17.25 60.4844 16.8906V16.8438C60.4844 16.2031 60.2266 15.6641 59.7109 15.2266C59.1953 14.7734 58.5625 14.5469 57.8125 14.5469C56.0625 14.5469 55.1016 15.2969 54.9297 16.7969H52.5156C52.5938 15.5625 53.1094 14.5781 54.0625 13.8438C55.0312 13.0938 56.2734 12.7188 57.7891 12.7188C58.7734 12.7188 59.6406 12.9062 60.3906 13.2812C61.1562 13.6562 61.75 14.1797 62.1719 14.8516C62.6094 15.5078 62.8281 16.2656 62.8281 17.125ZM54.7891 21.5312C54.7891 22.0938 55 22.5391 55.4219 22.8672C55.8594 23.1953 56.4453 23.3594 57.1797 23.3594C57.8047 23.3594 58.3672 23.2188 58.8672 22.9375C59.3672 22.6406 59.7578 22.2422 60.0391 21.7422C60.3359 21.2422 60.4844 20.6719 60.4844 20.0312V19.6328L56.7812 19.8672C55.4531 19.9609 54.7891 20.5156 54.7891 21.5312ZM76.5391 8.19531V25H74.2188V22.8203C73.7969 23.5859 73.2422 24.1875 72.5547 24.625C71.8672 25.0469 71.0859 25.2578 70.2109 25.2578C69.1797 25.2578 68.2734 25 67.4922 24.4844C66.7266 23.9531 66.125 23.2188 65.6875 22.2812C65.2656 21.3281 65.0547 20.2188 65.0547 18.9531C65.0547 17.6875 65.2656 16.5859 65.6875 15.6484C66.125 14.7109 66.7266 13.9844 67.4922 13.4688C68.2734 12.9531 69.1797 12.6953 70.2109 12.6953C71.0859 12.6953 71.8672 12.9062 72.5547 13.3281C73.2422 13.75 73.7969 14.3438 74.2188 15.1094V8.19531H76.5391ZM67.4453 18.9531C67.4453 20.2969 67.7422 21.3438 68.3359 22.0938C68.9297 22.8281 69.7578 23.1953 70.8203 23.1953C71.8984 23.1953 72.7344 22.8281 73.3281 22.0938C73.9219 21.3438 74.2188 20.2969 74.2188 18.9531C74.2188 17.625 73.9219 16.5938 73.3281 15.8594C72.7344 15.125 71.8984 14.7578 70.8203 14.7578C69.7578 14.7578 68.9297 15.125 68.3359 15.8594C67.7422 16.5938 67.4453 17.625 67.4453 18.9531Z" fill="#5E17EB"/>
<path d="M86.5547 9.39062C87.8516 9.39062 88.8984 9.75781 89.6953 10.4922C90.4922 11.2266 90.8906 12.1797 90.8906 13.3516C90.8906 14.1641 90.6953 14.8828 90.3047 15.5078C89.9297 16.1172 89.4141 16.5781 88.7578 16.8906C89.6328 17.1875 90.3281 17.6953 90.8438 18.4141C91.3594 19.1172 91.6172 19.9453 91.6172 20.8984C91.6172 22.1328 91.2188 23.125 90.4219 23.875C89.625 24.625 88.5781 25 87.2812 25H79.2422V9.39062H86.5547ZM86.2734 11.4297H81.5625V16.0234H86.2734C86.9609 16.0234 87.5 15.8125 87.8906 15.3906C88.2969 14.9688 88.5 14.3906 88.5 13.6562C88.5 12.9531 88.2969 12.4062 87.8906 12.0156C87.5 11.625 86.9609 11.4297 86.2734 11.4297ZM86.4844 18.0625H81.5625V22.9609H86.7656C87.5312 22.9609 88.1328 22.7578 88.5703 22.3516C89.0078 21.9297 89.2266 21.3516 89.2266 20.6172C89.2266 19.8359 88.9766 19.2188 88.4766 18.7656C87.9922 18.2969 87.3281 18.0625 86.4844 18.0625ZM103.828 17.125V25H101.484V22.9844C101.062 23.6875 100.492 24.2422 99.7734 24.6484C99.0703 25.0547 98.2812 25.2578 97.4062 25.2578C96.625 25.2578 95.9375 25.1094 95.3438 24.8125C94.75 24.5 94.2812 24.0703 93.9375 23.5234C93.5938 22.9609 93.4219 22.3281 93.4219 21.625C93.4219 20.6094 93.7266 19.8047 94.3359 19.2109C94.9453 18.6172 95.8203 18.2891 96.9609 18.2266L100.195 17.9922C100.664 17.9609 100.992 17.8594 101.18 17.6875C101.383 17.5156 101.484 17.25 101.484 16.8906V16.8438C101.484 16.2031 101.227 15.6641 100.711 15.2266C100.195 14.7734 99.5625 14.5469 98.8125 14.5469C97.0625 14.5469 96.1016 15.2969 95.9297 16.7969H93.5156C93.5938 15.5625 94.1094 14.5781 95.0625 13.8438C96.0312 13.0938 97.2734 12.7188 98.7891 12.7188C99.7734 12.7188 100.641 12.9062 101.391 13.2812C102.156 13.6562 102.75 14.1797 103.172 14.8516C103.609 15.5078 103.828 16.2656 103.828 17.125ZM95.7891 21.5312C95.7891 22.0938 96 22.5391 96.4219 22.8672C96.8594 23.1953 97.4453 23.3594 98.1797 23.3594C98.8047 23.3594 99.3672 23.2188 99.8672 22.9375C100.367 22.6406 100.758 22.2422 101.039 21.7422C101.336 21.2422 101.484 20.6719 101.484 20.0312V19.6328L97.7812 19.8672C96.4531 19.9609 95.7891 20.5156 95.7891 21.5312ZM114.562 17.8984C114.562 16.8203 114.297 16.0469 113.766 15.5781C113.234 15.0938 112.523 14.8516 111.633 14.8516C110.789 14.8516 110.078 15.125 109.5 15.6719C108.922 16.2031 108.633 16.8906 108.633 17.7344V25H106.312V13H108.633V14.8281C109.086 14.1406 109.656 13.6172 110.344 13.2578C111.031 12.8828 111.727 12.6953 112.43 12.6953C113.727 12.6953 114.789 13.1016 115.617 13.9141C116.461 14.7109 116.883 15.875 116.883 17.4062V25H114.562V17.8984ZM130.547 8.19531V25H128.227V22.8203C127.805 23.5859 127.25 24.1875 126.562 24.625C125.875 25.0469 125.094 25.2578 124.219 25.2578C123.188 25.2578 122.281 25 121.5 24.4844C120.734 23.9531 120.133 23.2188 119.695 22.2812C119.273 21.3281 119.062 20.2188 119.062 18.9531C119.062 17.6875 119.273 16.5859 119.695 15.6484C120.133 14.7109 120.734 13.9844 121.5 13.4688C122.281 12.9531 123.188 12.6953 124.219 12.6953C125.094 12.6953 125.875 12.9062 126.562 13.3281C127.25 13.75 127.805 14.3438 128.227 15.1094V8.19531H130.547ZM121.453 18.9531C121.453 20.2969 121.75 21.3438 122.344 22.0938C122.938 22.8281 123.766 23.1953 124.828 23.1953C125.906 23.1953 126.742 22.8281 127.336 22.0938C127.93 21.3438 128.227 20.2969 128.227 18.9531C128.227 17.625 127.93 16.5938 127.336 15.8594C126.742 15.125 125.906 14.7578 124.828 14.7578C123.766 14.7578 122.938 15.125 122.344 15.8594C121.75 16.5938 121.453 17.625 121.453 18.9531Z" fill="#5E17EB"/>
<defs>
<clipPath id="clip0_23_196">
<rect width="29" height="29" fill="white" transform="translate(0 1)"/>
</clipPath>
</defs>
</svg>
