<svg width="42" height="65" viewBox="0 0 42 65" fill="none" xmlns="http://www.w3.org/2000/svg">
<g clip-path="url(#clip0_24_89)">
<path d="M20.7168 24.7176C23.3592 24.7176 25.5012 22.6055 25.5012 20C25.5012 17.3946 23.3592 15.2824 20.7168 15.2824C18.0745 15.2824 15.9324 17.3946 15.9324 20C15.9324 22.6055 18.0745 24.7176 20.7168 24.7176Z" fill="white"/>
<path d="M22.3386 0.0624273C12.1548 -0.718373 3.40226 5.92323 1.05266 15.0792C0.922844 15.5864 1.30822 16.08 1.83883 16.08H10.1679C10.4835 16.08 10.7732 15.9016 10.903 15.6184C12.6027 11.9232 16.3851 9.35763 20.7736 9.38003C26.7303 9.41043 31.5634 14.2664 31.4863 20.14C31.41 25.9408 26.6175 30.6208 20.7168 30.6208C16.3161 30.6208 12.5329 28.0184 10.8616 24.2896C10.7326 24.0016 10.4413 23.8168 10.1217 23.8168H1.81287C1.28875 23.8168 0.897693 24.3008 1.02345 24.8032C3.2051 33.5288 11.1934 40 20.716 40C32.4607 40 41.8745 30.1568 40.9342 18.38C40.1553 8.62003 32.2376 0.820827 22.3386 0.0624273Z" fill="white"/>
</g>
<path d="M6.11719 50.5938C6.98177 50.5938 7.67969 50.8385 8.21094 51.3281C8.74219 51.8177 9.00781 52.4531 9.00781 53.2344C9.00781 53.776 8.8776 54.2552 8.61719 54.6719C8.36719 55.0781 8.02344 55.3854 7.58594 55.5938C8.16927 55.7917 8.63281 56.1302 8.97656 56.6094C9.32031 57.0781 9.49219 57.6302 9.49219 58.2656C9.49219 59.0885 9.22656 59.75 8.69531 60.25C8.16406 60.75 7.46615 61 6.60156 61H1.24219V50.5938H6.11719ZM5.92969 51.9531H2.78906V55.0156H5.92969C6.38802 55.0156 6.7474 54.875 7.00781 54.5938C7.27865 54.3125 7.41406 53.9271 7.41406 53.4375C7.41406 52.9688 7.27865 52.6042 7.00781 52.3438C6.7474 52.0833 6.38802 51.9531 5.92969 51.9531ZM6.07031 56.375H2.78906V59.6406H6.25781C6.76823 59.6406 7.16927 59.5052 7.46094 59.2344C7.7526 58.9531 7.89844 58.5677 7.89844 58.0781C7.89844 57.5573 7.73177 57.1458 7.39844 56.8438C7.07552 56.5312 6.63281 56.375 6.07031 56.375ZM17.6328 55.75V61H16.0703V59.6562C15.7891 60.125 15.4089 60.4948 14.9297 60.7656C14.4609 61.0365 13.9349 61.1719 13.3516 61.1719C12.8307 61.1719 12.3724 61.0729 11.9766 60.875C11.5807 60.6667 11.2682 60.3802 11.0391 60.0156C10.8099 59.6406 10.6953 59.2188 10.6953 58.75C10.6953 58.0729 10.8984 57.5365 11.3047 57.1406C11.7109 56.7448 12.2943 56.526 13.0547 56.4844L15.2109 56.3281C15.5234 56.3073 15.7422 56.2396 15.8672 56.125C16.0026 56.0104 16.0703 55.8333 16.0703 55.5938V55.5625C16.0703 55.1354 15.8984 54.776 15.5547 54.4844C15.2109 54.1823 14.7891 54.0312 14.2891 54.0312C13.1224 54.0312 12.4818 54.5312 12.3672 55.5312H10.7578C10.8099 54.7083 11.1536 54.0521 11.7891 53.5625C12.4349 53.0625 13.263 52.8125 14.2734 52.8125C14.9297 52.8125 15.5078 52.9375 16.0078 53.1875C16.5182 53.4375 16.9141 53.7865 17.1953 54.2344C17.487 54.6719 17.6328 55.1771 17.6328 55.75ZM12.2734 58.6875C12.2734 59.0625 12.4141 59.3594 12.6953 59.5781C12.987 59.7969 13.3776 59.9062 13.8672 59.9062C14.2839 59.9062 14.6589 59.8125 14.9922 59.625C15.3255 59.4271 15.5859 59.1615 15.7734 58.8281C15.9714 58.4948 16.0703 58.1146 16.0703 57.6875V57.4219L13.6016 57.5781C12.7161 57.6406 12.2734 58.0104 12.2734 58.6875ZM26.7734 49.7969V61H25.2266V59.5469C24.9453 60.0573 24.5755 60.4583 24.1172 60.75C23.6589 61.0312 23.138 61.1719 22.5547 61.1719C21.8672 61.1719 21.263 61 20.7422 60.6562C20.2318 60.3021 19.8307 59.8125 19.5391 59.1875C19.2578 58.5521 19.1172 57.8125 19.1172 56.9688C19.1172 56.125 19.2578 55.3906 19.5391 54.7656C19.8307 54.1406 20.2318 53.6562 20.7422 53.3125C21.263 52.9688 21.8672 52.7969 22.5547 52.7969C23.138 52.7969 23.6589 52.9375 24.1172 53.2188C24.5755 53.5 24.9453 53.8958 25.2266 54.4062V49.7969H26.7734ZM20.7109 56.9688C20.7109 57.8646 20.9089 58.5625 21.3047 59.0625C21.7005 59.5521 22.2526 59.7969 22.9609 59.7969C23.6797 59.7969 24.237 59.5521 24.6328 59.0625C25.0286 58.5625 25.2266 57.8646 25.2266 56.9688C25.2266 56.0833 25.0286 55.3958 24.6328 54.9062C24.237 54.4167 23.6797 54.1719 22.9609 54.1719C22.2526 54.1719 21.7005 54.4167 21.3047 54.9062C20.9089 55.3958 20.7109 56.0833 20.7109 56.9688Z" fill="white"/>
<path d="M29.1719 50.5938H30.7344V61H29.1719V50.5938ZM36.3906 50.5938C37.3073 50.5938 38.1094 50.8177 38.7969 51.2656C39.4844 51.7135 40.0208 52.3438 40.4062 53.1562C40.7917 53.9583 40.9844 54.901 40.9844 55.9844C40.9844 56.9844 40.8073 57.8646 40.4531 58.625C40.099 59.375 39.599 59.9583 38.9531 60.375C38.3073 60.7917 37.5573 61 36.7031 61H32.3594V50.5938H36.3906ZM33.9062 52.0156V59.5938H36.5469C37.4427 59.5938 38.1406 59.276 38.6406 58.6406C39.1406 58.0052 39.3906 57.1198 39.3906 55.9844C39.3906 54.724 39.1146 53.75 38.5625 53.0625C38.0104 52.3646 37.2344 52.0156 36.2344 52.0156H33.9062Z" fill="white"/>
<defs>
<clipPath id="clip0_24_89">
<rect width="40" height="40" fill="white" transform="translate(1)"/>
</clipPath>
</defs>
</svg>
