<svg width="109" height="31" viewBox="0 0 109 31" fill="none" xmlns="http://www.w3.org/2000/svg">
<g clip-path="url(#clip0_24_150)">
<path d="M14.2947 18.9203C16.2104 18.9203 17.7634 17.389 17.7634 15.5C17.7634 13.611 16.2104 12.0797 14.2947 12.0797C12.379 12.0797 10.826 13.611 10.826 15.5C10.826 17.389 12.379 18.9203 14.2947 18.9203Z" fill="black"/>
<path d="M15.4704 1.04528C8.08719 0.479205 1.74157 5.29437 0.0381086 11.9325C-0.0560053 12.3002 0.223395 12.658 0.608085 12.658H6.64666C6.87548 12.658 7.08547 12.5287 7.17958 12.3234C8.41189 9.64436 11.1541 7.7843 14.3358 7.80054C18.6544 7.82258 22.1584 11.3432 22.1025 15.6015C22.0472 19.8071 18.5727 23.2001 14.2946 23.2001C11.1041 23.2001 8.3613 21.3134 7.14959 18.61C7.05606 18.4012 6.84489 18.2672 6.61314 18.2672H0.589263C0.209278 18.2672 -0.0742398 18.6181 0.016933 18.9824C1.59863 25.3084 7.39016 30 14.294 30C22.809 30 29.634 22.8637 28.9522 14.3255C28.3875 7.24954 22.6472 1.59512 15.4704 1.04528Z" fill="black"/>
</g>
<path d="M45.5547 9.39062C46.8516 9.39062 47.8984 9.75781 48.6953 10.4922C49.4922 11.2266 49.8906 12.1797 49.8906 13.3516C49.8906 14.1641 49.6953 14.8828 49.3047 15.5078C48.9297 16.1172 48.4141 16.5781 47.7578 16.8906C48.6328 17.1875 49.3281 17.6953 49.8438 18.4141C50.3594 19.1172 50.6172 19.9453 50.6172 20.8984C50.6172 22.1328 50.2188 23.125 49.4219 23.875C48.625 24.625 47.5781 25 46.2812 25H38.2422V9.39062H45.5547ZM45.2734 11.4297H40.5625V16.0234H45.2734C45.9609 16.0234 46.5 15.8125 46.8906 15.3906C47.2969 14.9688 47.5 14.3906 47.5 13.6562C47.5 12.9531 47.2969 12.4062 46.8906 12.0156C46.5 11.625 45.9609 11.4297 45.2734 11.4297ZM45.4844 18.0625H40.5625V22.9609H45.7656C46.5312 22.9609 47.1328 22.7578 47.5703 22.3516C48.0078 21.9297 48.2266 21.3516 48.2266 20.6172C48.2266 19.8359 47.9766 19.2188 47.4766 18.7656C46.9922 18.2969 46.3281 18.0625 45.4844 18.0625ZM62.8281 17.125V25H60.4844V22.9844C60.0625 23.6875 59.4922 24.2422 58.7734 24.6484C58.0703 25.0547 57.2812 25.2578 56.4062 25.2578C55.625 25.2578 54.9375 25.1094 54.3438 24.8125C53.75 24.5 53.2812 24.0703 52.9375 23.5234C52.5938 22.9609 52.4219 22.3281 52.4219 21.625C52.4219 20.6094 52.7266 19.8047 53.3359 19.2109C53.9453 18.6172 54.8203 18.2891 55.9609 18.2266L59.1953 17.9922C59.6641 17.9609 59.9922 17.8594 60.1797 17.6875C60.3828 17.5156 60.4844 17.25 60.4844 16.8906V16.8438C60.4844 16.2031 60.2266 15.6641 59.7109 15.2266C59.1953 14.7734 58.5625 14.5469 57.8125 14.5469C56.0625 14.5469 55.1016 15.2969 54.9297 16.7969H52.5156C52.5938 15.5625 53.1094 14.5781 54.0625 13.8438C55.0312 13.0938 56.2734 12.7188 57.7891 12.7188C58.7734 12.7188 59.6406 12.9062 60.3906 13.2812C61.1562 13.6562 61.75 14.1797 62.1719 14.8516C62.6094 15.5078 62.8281 16.2656 62.8281 17.125ZM54.7891 21.5312C54.7891 22.0938 55 22.5391 55.4219 22.8672C55.8594 23.1953 56.4453 23.3594 57.1797 23.3594C57.8047 23.3594 58.3672 23.2188 58.8672 22.9375C59.3672 22.6406 59.7578 22.2422 60.0391 21.7422C60.3359 21.2422 60.4844 20.6719 60.4844 20.0312V19.6328L56.7812 19.8672C55.4531 19.9609 54.7891 20.5156 54.7891 21.5312ZM76.5391 8.19531V25H74.2188V22.8203C73.7969 23.5859 73.2422 24.1875 72.5547 24.625C71.8672 25.0469 71.0859 25.2578 70.2109 25.2578C69.1797 25.2578 68.2734 25 67.4922 24.4844C66.7266 23.9531 66.125 23.2188 65.6875 22.2812C65.2656 21.3281 65.0547 20.2188 65.0547 18.9531C65.0547 17.6875 65.2656 16.5859 65.6875 15.6484C66.125 14.7109 66.7266 13.9844 67.4922 13.4688C68.2734 12.9531 69.1797 12.6953 70.2109 12.6953C71.0859 12.6953 71.8672 12.9062 72.5547 13.3281C73.2422 13.75 73.7969 14.3438 74.2188 15.1094V8.19531H76.5391ZM67.4453 18.9531C67.4453 20.2969 67.7422 21.3438 68.3359 22.0938C68.9297 22.8281 69.7578 23.1953 70.8203 23.1953C71.8984 23.1953 72.7344 22.8281 73.3281 22.0938C73.9219 21.3438 74.2188 20.2969 74.2188 18.9531C74.2188 17.625 73.9219 16.5938 73.3281 15.8594C72.7344 15.125 71.8984 14.7578 70.8203 14.7578C69.7578 14.7578 68.9297 15.125 68.3359 15.8594C67.7422 16.5938 67.4453 17.625 67.4453 18.9531Z" fill="black"/>
<path d="M79.0078 17.3828C79.0078 15.7266 79.3047 14.2891 79.8984 13.0703C80.4922 11.8359 81.3203 10.875 82.3828 10.1875C83.4609 9.5 84.7188 9.15625 86.1562 9.15625C87.5781 9.15625 88.8203 9.5 89.8828 10.1875C90.9609 10.875 91.7969 11.8359 92.3906 13.0703C92.9844 14.2891 93.2812 15.7266 93.2812 17.3828C93.2812 18.9453 92.9844 20.3125 92.3906 21.4844C91.7969 22.6562 90.9609 23.5703 89.8828 24.2266C88.8203 24.8672 87.5781 25.1875 86.1562 25.1875C84.7188 25.1875 83.4609 24.8672 82.3828 24.2266C81.3203 23.5703 80.4922 22.6562 79.8984 21.4844C79.3047 20.3125 79.0078 18.9453 79.0078 17.3828ZM90.8906 17.3828C90.8906 15.4766 90.4766 13.9922 89.6484 12.9297C88.8203 11.8516 87.6562 11.3125 86.1562 11.3125C84.6406 11.3125 83.4609 11.8516 82.6172 12.9297C81.7891 13.9922 81.375 15.4766 81.375 17.3828C81.375 19.1641 81.7891 20.5547 82.6172 21.5547C83.4609 22.5391 84.6406 23.0312 86.1562 23.0312C87.6562 23.0312 88.8203 22.5391 89.6484 21.5547C90.4766 20.5547 90.8906 19.1641 90.8906 17.3828ZM102.188 18.4375L100.078 18.2031C98.5625 18.0312 97.3984 17.5781 96.5859 16.8438C95.7891 16.0938 95.3906 15.0859 95.3906 13.8203C95.3906 12.3984 95.9062 11.2734 96.9375 10.4453C97.9688 9.60156 99.375 9.17969 101.156 9.17969C102.875 9.17969 104.266 9.61719 105.328 10.4922C106.391 11.3516 106.992 12.5312 107.133 14.0312H104.766C104.609 13.0625 104.234 12.3438 103.641 11.875C103.062 11.4062 102.227 11.1719 101.133 11.1719C100.102 11.1719 99.2734 11.4062 98.6484 11.875C98.0234 12.3281 97.7109 12.9375 97.7109 13.7031C97.7109 14.3125 97.9375 14.7891 98.3906 15.1328C98.8594 15.4766 99.5391 15.7031 100.43 15.8125L102.445 16.0703C105.773 16.4453 107.438 17.9766 107.438 20.6641C107.438 21.5703 107.195 22.3672 106.711 23.0547C106.242 23.7266 105.578 24.25 104.719 24.625C103.859 25 102.852 25.1875 101.695 25.1875C99.8203 25.1875 98.3203 24.75 97.1953 23.875C96.0703 22.9844 95.4297 21.7969 95.2734 20.3125H97.6641C97.9922 22.2344 99.3438 23.1953 101.719 23.1953C102.734 23.1953 103.547 22.9688 104.156 22.5156C104.781 22.0625 105.094 21.4609 105.094 20.7109C105.094 19.4141 104.125 18.6562 102.188 18.4375Z" fill="black"/>
<defs>
<clipPath id="clip0_24_150">
<rect width="29" height="29" fill="white" transform="translate(0 1)"/>
</clipPath>
</defs>
</svg>
