<svg width="49" height="65" viewBox="0 0 49 65" fill="none" xmlns="http://www.w3.org/2000/svg">
<g clip-path="url(#clip0_24_146)">
<path d="M24.2169 24.7176C26.8592 24.7176 29.0013 22.6055 29.0013 20C29.0013 17.3945 26.8592 15.2824 24.2169 15.2824C21.5745 15.2824 19.4325 17.3945 19.4325 20C19.4325 22.6055 21.5745 24.7176 24.2169 24.7176Z" fill="black"/>
<path d="M25.8386 0.0624273C15.6548 -0.718373 6.90226 5.92323 4.55266 15.0792C4.42284 15.5864 4.80822 16.08 5.33883 16.08H13.6679C13.9835 16.08 14.2732 15.9016 14.403 15.6184C16.1027 11.9232 19.8851 9.35763 24.2736 9.38003C30.2303 9.41043 35.0634 14.2664 34.9863 20.14C34.91 25.9408 30.1175 30.6208 24.2168 30.6208C19.8161 30.6208 16.0329 28.0184 14.3616 24.2896C14.2326 24.0016 13.9413 23.8168 13.6217 23.8168H5.31287C4.78875 23.8168 4.39769 24.3008 4.52345 24.8032C6.7051 33.5288 14.6934 40 24.216 40C35.9607 40 45.3745 30.1568 44.4342 18.38C43.6553 8.62003 35.7376 0.820827 25.8386 0.0624273Z" fill="black"/>
</g>
<path d="M6.11719 50.5938C6.98177 50.5938 7.67969 50.8385 8.21094 51.3281C8.74219 51.8177 9.00781 52.4531 9.00781 53.2344C9.00781 53.776 8.8776 54.2552 8.61719 54.6719C8.36719 55.0781 8.02344 55.3854 7.58594 55.5938C8.16927 55.7917 8.63281 56.1302 8.97656 56.6094C9.32031 57.0781 9.49219 57.6302 9.49219 58.2656C9.49219 59.0885 9.22656 59.75 8.69531 60.25C8.16406 60.75 7.46615 61 6.60156 61H1.24219V50.5938H6.11719ZM5.92969 51.9531H2.78906V55.0156H5.92969C6.38802 55.0156 6.7474 54.875 7.00781 54.5938C7.27865 54.3125 7.41406 53.9271 7.41406 53.4375C7.41406 52.9688 7.27865 52.6042 7.00781 52.3438C6.7474 52.0833 6.38802 51.9531 5.92969 51.9531ZM6.07031 56.375H2.78906V59.6406H6.25781C6.76823 59.6406 7.16927 59.5052 7.46094 59.2344C7.7526 58.9531 7.89844 58.5677 7.89844 58.0781C7.89844 57.5573 7.73177 57.1458 7.39844 56.8438C7.07552 56.5312 6.63281 56.375 6.07031 56.375ZM17.6328 55.75V61H16.0703V59.6562C15.7891 60.125 15.4089 60.4948 14.9297 60.7656C14.4609 61.0365 13.9349 61.1719 13.3516 61.1719C12.8307 61.1719 12.3724 61.0729 11.9766 60.875C11.5807 60.6667 11.2682 60.3802 11.0391 60.0156C10.8099 59.6406 10.6953 59.2188 10.6953 58.75C10.6953 58.0729 10.8984 57.5365 11.3047 57.1406C11.7109 56.7448 12.2943 56.526 13.0547 56.4844L15.2109 56.3281C15.5234 56.3073 15.7422 56.2396 15.8672 56.125C16.0026 56.0104 16.0703 55.8333 16.0703 55.5938V55.5625C16.0703 55.1354 15.8984 54.776 15.5547 54.4844C15.2109 54.1823 14.7891 54.0312 14.2891 54.0312C13.1224 54.0312 12.4818 54.5312 12.3672 55.5312H10.7578C10.8099 54.7083 11.1536 54.0521 11.7891 53.5625C12.4349 53.0625 13.263 52.8125 14.2734 52.8125C14.9297 52.8125 15.5078 52.9375 16.0078 53.1875C16.5182 53.4375 16.9141 53.7865 17.1953 54.2344C17.487 54.6719 17.6328 55.1771 17.6328 55.75ZM12.2734 58.6875C12.2734 59.0625 12.4141 59.3594 12.6953 59.5781C12.987 59.7969 13.3776 59.9062 13.8672 59.9062C14.2839 59.9062 14.6589 59.8125 14.9922 59.625C15.3255 59.4271 15.5859 59.1615 15.7734 58.8281C15.9714 58.4948 16.0703 58.1146 16.0703 57.6875V57.4219L13.6016 57.5781C12.7161 57.6406 12.2734 58.0104 12.2734 58.6875ZM26.7734 49.7969V61H25.2266V59.5469C24.9453 60.0573 24.5755 60.4583 24.1172 60.75C23.6589 61.0312 23.138 61.1719 22.5547 61.1719C21.8672 61.1719 21.263 61 20.7422 60.6562C20.2318 60.3021 19.8307 59.8125 19.5391 59.1875C19.2578 58.5521 19.1172 57.8125 19.1172 56.9688C19.1172 56.125 19.2578 55.3906 19.5391 54.7656C19.8307 54.1406 20.2318 53.6562 20.7422 53.3125C21.263 52.9688 21.8672 52.7969 22.5547 52.7969C23.138 52.7969 23.6589 52.9375 24.1172 53.2188C24.5755 53.5 24.9453 53.8958 25.2266 54.4062V49.7969H26.7734ZM20.7109 56.9688C20.7109 57.8646 20.9089 58.5625 21.3047 59.0625C21.7005 59.5521 22.2526 59.7969 22.9609 59.7969C23.6797 59.7969 24.237 59.5521 24.6328 59.0625C25.0286 58.5625 25.2266 57.8646 25.2266 56.9688C25.2266 56.0833 25.0286 55.3958 24.6328 54.9062C24.237 54.4167 23.6797 54.1719 22.9609 54.1719C22.2526 54.1719 21.7005 54.4167 21.3047 54.9062C20.9089 55.3958 20.7109 56.0833 20.7109 56.9688Z" fill="black"/>
<path d="M29.0312 55.9219C29.0312 54.8177 29.2292 53.8594 29.625 53.0469C30.0208 52.224 30.5729 51.5833 31.2812 51.125C32 50.6667 32.8385 50.4375 33.7969 50.4375C34.7448 50.4375 35.5729 50.6667 36.2812 51.125C37 51.5833 37.5573 52.224 37.9531 53.0469C38.349 53.8594 38.5469 54.8177 38.5469 55.9219C38.5469 56.9635 38.349 57.875 37.9531 58.6562C37.5573 59.4375 37 60.0469 36.2812 60.4844C35.5729 60.9115 34.7448 61.125 33.7969 61.125C32.8385 61.125 32 60.9115 31.2812 60.4844C30.5729 60.0469 30.0208 59.4375 29.625 58.6562C29.2292 57.875 29.0312 56.9635 29.0312 55.9219ZM36.9531 55.9219C36.9531 54.651 36.6771 53.6615 36.125 52.9531C35.5729 52.2344 34.7969 51.875 33.7969 51.875C32.7865 51.875 32 52.2344 31.4375 52.9531C30.8854 53.6615 30.6094 54.651 30.6094 55.9219C30.6094 57.1094 30.8854 58.0365 31.4375 58.7031C32 59.3594 32.7865 59.6875 33.7969 59.6875C34.7969 59.6875 35.5729 59.3594 36.125 58.7031C36.6771 58.0365 36.9531 57.1094 36.9531 55.9219ZM44.4844 56.625L43.0781 56.4688C42.0677 56.3542 41.2917 56.0521 40.75 55.5625C40.2188 55.0625 39.9531 54.3906 39.9531 53.5469C39.9531 52.599 40.2969 51.849 40.9844 51.2969C41.6719 50.7344 42.6094 50.4531 43.7969 50.4531C44.9427 50.4531 45.8698 50.7448 46.5781 51.3281C47.2865 51.901 47.6875 52.6875 47.7812 53.6875H46.2031C46.099 53.0417 45.849 52.5625 45.4531 52.25C45.0677 51.9375 44.5104 51.7812 43.7812 51.7812C43.0938 51.7812 42.5417 51.9375 42.125 52.25C41.7083 52.5521 41.5 52.9583 41.5 53.4688C41.5 53.875 41.651 54.1927 41.9531 54.4219C42.2656 54.651 42.7188 54.8021 43.3125 54.875L44.6562 55.0469C46.875 55.2969 47.9844 56.3177 47.9844 58.1094C47.9844 58.7135 47.8229 59.2448 47.5 59.7031C47.1875 60.151 46.7448 60.5 46.1719 60.75C45.599 61 44.9271 61.125 44.1562 61.125C42.9062 61.125 41.9062 60.8333 41.1562 60.25C40.4062 59.6562 39.9792 58.8646 39.875 57.875H41.4688C41.6875 59.1562 42.5885 59.7969 44.1719 59.7969C44.849 59.7969 45.3906 59.6458 45.7969 59.3438C46.2135 59.0417 46.4219 58.6406 46.4219 58.1406C46.4219 57.276 45.776 56.7708 44.4844 56.625Z" fill="black"/>
<defs>
<clipPath id="clip0_24_146">
<rect width="40" height="40" fill="white" transform="translate(4.5)"/>
</clipPath>
</defs>
</svg>
