<svg width="130" height="31" viewBox="0 0 130 31" fill="none" xmlns="http://www.w3.org/2000/svg">
<g clip-path="url(#clip0_24_149)">
<path d="M14.2947 18.9203C16.2104 18.9203 17.7634 17.389 17.7634 15.5C17.7634 13.611 16.2104 12.0797 14.2947 12.0797C12.379 12.0797 10.826 13.611 10.826 15.5C10.826 17.389 12.379 18.9203 14.2947 18.9203Z" fill="black"/>
<path d="M15.4704 1.04528C8.08719 0.479205 1.74157 5.29437 0.0381086 11.9325C-0.0560053 12.3002 0.223395 12.658 0.608085 12.658H6.64666C6.87548 12.658 7.08547 12.5287 7.17958 12.3234C8.41189 9.64436 11.1541 7.7843 14.3358 7.80054C18.6544 7.82258 22.1584 11.3432 22.1025 15.6015C22.0472 19.8071 18.5727 23.2001 14.2946 23.2001C11.1041 23.2001 8.3613 21.3134 7.14959 18.61C7.05606 18.4012 6.84489 18.2672 6.61314 18.2672H0.589263C0.209278 18.2672 -0.0742398 18.6181 0.016933 18.9824C1.59863 25.3084 7.39016 30 14.294 30C22.809 30 29.634 22.8637 28.9522 14.3255C28.3875 7.24954 22.6472 1.59512 15.4704 1.04528Z" fill="black"/>
</g>
<path d="M45.5547 9.39062C46.8516 9.39062 47.8984 9.75781 48.6953 10.4922C49.4922 11.2266 49.8906 12.1797 49.8906 13.3516C49.8906 14.1641 49.6953 14.8828 49.3047 15.5078C48.9297 16.1172 48.4141 16.5781 47.7578 16.8906C48.6328 17.1875 49.3281 17.6953 49.8438 18.4141C50.3594 19.1172 50.6172 19.9453 50.6172 20.8984C50.6172 22.1328 50.2188 23.125 49.4219 23.875C48.625 24.625 47.5781 25 46.2812 25H38.2422V9.39062H45.5547ZM45.2734 11.4297H40.5625V16.0234H45.2734C45.9609 16.0234 46.5 15.8125 46.8906 15.3906C47.2969 14.9688 47.5 14.3906 47.5 13.6562C47.5 12.9531 47.2969 12.4062 46.8906 12.0156C46.5 11.625 45.9609 11.4297 45.2734 11.4297ZM45.4844 18.0625H40.5625V22.9609H45.7656C46.5312 22.9609 47.1328 22.7578 47.5703 22.3516C48.0078 21.9297 48.2266 21.3516 48.2266 20.6172C48.2266 19.8359 47.9766 19.2188 47.4766 18.7656C46.9922 18.2969 46.3281 18.0625 45.4844 18.0625ZM62.8281 17.125V25H60.4844V22.9844C60.0625 23.6875 59.4922 24.2422 58.7734 24.6484C58.0703 25.0547 57.2812 25.2578 56.4062 25.2578C55.625 25.2578 54.9375 25.1094 54.3438 24.8125C53.75 24.5 53.2812 24.0703 52.9375 23.5234C52.5938 22.9609 52.4219 22.3281 52.4219 21.625C52.4219 20.6094 52.7266 19.8047 53.3359 19.2109C53.9453 18.6172 54.8203 18.2891 55.9609 18.2266L59.1953 17.9922C59.6641 17.9609 59.9922 17.8594 60.1797 17.6875C60.3828 17.5156 60.4844 17.25 60.4844 16.8906V16.8438C60.4844 16.2031 60.2266 15.6641 59.7109 15.2266C59.1953 14.7734 58.5625 14.5469 57.8125 14.5469C56.0625 14.5469 55.1016 15.2969 54.9297 16.7969H52.5156C52.5938 15.5625 53.1094 14.5781 54.0625 13.8438C55.0312 13.0938 56.2734 12.7188 57.7891 12.7188C58.7734 12.7188 59.6406 12.9062 60.3906 13.2812C61.1562 13.6562 61.75 14.1797 62.1719 14.8516C62.6094 15.5078 62.8281 16.2656 62.8281 17.125ZM54.7891 21.5312C54.7891 22.0938 55 22.5391 55.4219 22.8672C55.8594 23.1953 56.4453 23.3594 57.1797 23.3594C57.8047 23.3594 58.3672 23.2188 58.8672 22.9375C59.3672 22.6406 59.7578 22.2422 60.0391 21.7422C60.3359 21.2422 60.4844 20.6719 60.4844 20.0312V19.6328L56.7812 19.8672C55.4531 19.9609 54.7891 20.5156 54.7891 21.5312ZM76.5391 8.19531V25H74.2188V22.8203C73.7969 23.5859 73.2422 24.1875 72.5547 24.625C71.8672 25.0469 71.0859 25.2578 70.2109 25.2578C69.1797 25.2578 68.2734 25 67.4922 24.4844C66.7266 23.9531 66.125 23.2188 65.6875 22.2812C65.2656 21.3281 65.0547 20.2188 65.0547 18.9531C65.0547 17.6875 65.2656 16.5859 65.6875 15.6484C66.125 14.7109 66.7266 13.9844 67.4922 13.4688C68.2734 12.9531 69.1797 12.6953 70.2109 12.6953C71.0859 12.6953 71.8672 12.9062 72.5547 13.3281C73.2422 13.75 73.7969 14.3438 74.2188 15.1094V8.19531H76.5391ZM67.4453 18.9531C67.4453 20.2969 67.7422 21.3438 68.3359 22.0938C68.9297 22.8281 69.7578 23.1953 70.8203 23.1953C71.8984 23.1953 72.7344 22.8281 73.3281 22.0938C73.9219 21.3438 74.2188 20.2969 74.2188 18.9531C74.2188 17.625 73.9219 16.5938 73.3281 15.8594C72.7344 15.125 71.8984 14.7578 70.8203 14.7578C69.7578 14.7578 68.9297 15.125 68.3359 15.8594C67.7422 16.5938 67.4453 17.625 67.4453 18.9531Z" fill="black"/>
<path d="M90.2109 9.39062V11.5938H85.6406V25H83.3203V11.5938H78.7734V9.39062H90.2109ZM90.3047 18.9531C90.3047 17.6719 90.5391 16.5703 91.0078 15.6484C91.4766 14.7266 92.1328 14.0156 92.9766 13.5156C93.8359 13.0156 94.8516 12.7656 96.0234 12.7656C97.1484 12.7656 98.1484 13.0312 99.0234 13.5625C99.8984 14.0781 100.578 14.7969 101.062 15.7188C101.562 16.625 101.812 17.6641 101.812 18.8359V19.5625H92.7188C92.8906 22.0156 94.0469 23.2422 96.1875 23.2422C97.0469 23.2422 97.7344 23.0547 98.25 22.6797C98.7656 22.2891 99.0859 21.7656 99.2109 21.1094H101.672C101.156 23.8281 99.3203 25.1875 96.1641 25.1875C94.9609 25.1875 93.9219 24.9375 93.0469 24.4375C92.1719 23.9219 91.4922 23.2031 91.0078 22.2812C90.5391 21.3438 90.3047 20.2344 90.3047 18.9531ZM96.0469 14.5938C94.1094 14.5938 93.0078 15.6797 92.7422 17.8516H99.3281C99.25 16.8672 98.9062 16.0781 98.2969 15.4844C97.7031 14.8906 96.9531 14.5938 96.0469 14.5938ZM103.781 18.9531C103.781 17.6875 104.023 16.5859 104.508 15.6484C104.992 14.7109 105.664 13.9844 106.523 13.4688C107.383 12.9531 108.391 12.6953 109.547 12.6953C110.594 12.6953 111.523 12.8984 112.336 13.3047C113.148 13.6953 113.797 14.2578 114.281 14.9922C114.781 15.7109 115.07 16.5703 115.148 17.5703H112.758C112.727 16.6797 112.422 15.9922 111.844 15.5078C111.266 15.0078 110.5 14.7578 109.547 14.7578C108.469 14.7578 107.633 15.125 107.039 15.8594C106.461 16.5938 106.172 17.625 106.172 18.9531C106.172 20.2969 106.469 21.3438 107.062 22.0938C107.656 22.8281 108.484 23.1953 109.547 23.1953C110.484 23.1953 111.242 22.9688 111.82 22.5156C112.398 22.0625 112.711 21.4219 112.758 20.5938H115.148C115.008 22.0469 114.43 23.1875 113.414 24.0156C112.398 24.8438 111.109 25.2578 109.547 25.2578C108.406 25.2578 107.398 25 106.523 24.4844C105.664 23.9531 104.992 23.2188 104.508 22.2812C104.023 21.3281 103.781 20.2188 103.781 18.9531ZM125.578 17.8984C125.578 16.8203 125.312 16.0469 124.781 15.5781C124.25 15.0938 123.539 14.8516 122.648 14.8516C121.805 14.8516 121.094 15.125 120.516 15.6719C119.953 16.2031 119.672 16.8906 119.672 17.7344V25H117.328V8.19531H119.672V14.8281C120.109 14.1406 120.672 13.6172 121.359 13.2578C122.047 12.8828 122.75 12.6953 123.469 12.6953C124.75 12.6953 125.805 13.1016 126.633 13.9141C127.477 14.7109 127.898 15.875 127.898 17.4062V25H125.578V17.8984Z" fill="black"/>
<defs>
<clipPath id="clip0_24_149">
<rect width="29" height="29" fill="white" transform="translate(0 1)"/>
</clipPath>
</defs>
</svg>
