<svg width="63" height="65" viewBox="0 0 63 65" fill="none" xmlns="http://www.w3.org/2000/svg">
<g clip-path="url(#clip0_24_86)">
<path d="M31.2168 24.7176C33.8592 24.7176 36.0012 22.6055 36.0012 20C36.0012 17.3945 33.8592 15.2824 31.2168 15.2824C28.5745 15.2824 26.4324 17.3945 26.4324 20C26.4324 22.6055 28.5745 24.7176 31.2168 24.7176Z" fill="white"/>
<path d="M32.8386 0.0624273C22.6548 -0.718373 13.9023 5.92323 11.5527 15.0792C11.4228 15.5864 11.8082 16.08 12.3388 16.08H20.6679C20.9835 16.08 21.2732 15.9016 21.403 15.6184C23.1027 11.9232 26.8851 9.35763 31.2736 9.38003C37.2303 9.41043 42.0634 14.2664 41.9863 20.14C41.91 25.9408 37.1175 30.6208 31.2168 30.6208C26.8161 30.6208 23.0329 28.0184 21.3616 24.2896C21.2326 24.0016 20.9413 23.8168 20.6217 23.8168H12.3129C11.7888 23.8168 11.3977 24.3008 11.5234 24.8032C13.7051 33.5288 21.6934 40 31.216 40C42.9607 40 52.3745 30.1568 51.4342 18.38C50.6553 8.62003 42.7376 0.820827 32.8386 0.0624273Z" fill="white"/>
</g>
<path d="M6.11719 50.5938C6.98177 50.5938 7.67969 50.8385 8.21094 51.3281C8.74219 51.8177 9.00781 52.4531 9.00781 53.2344C9.00781 53.776 8.8776 54.2552 8.61719 54.6719C8.36719 55.0781 8.02344 55.3854 7.58594 55.5938C8.16927 55.7917 8.63281 56.1302 8.97656 56.6094C9.32031 57.0781 9.49219 57.6302 9.49219 58.2656C9.49219 59.0885 9.22656 59.75 8.69531 60.25C8.16406 60.75 7.46615 61 6.60156 61H1.24219V50.5938H6.11719ZM5.92969 51.9531H2.78906V55.0156H5.92969C6.38802 55.0156 6.7474 54.875 7.00781 54.5938C7.27865 54.3125 7.41406 53.9271 7.41406 53.4375C7.41406 52.9688 7.27865 52.6042 7.00781 52.3438C6.7474 52.0833 6.38802 51.9531 5.92969 51.9531ZM6.07031 56.375H2.78906V59.6406H6.25781C6.76823 59.6406 7.16927 59.5052 7.46094 59.2344C7.7526 58.9531 7.89844 58.5677 7.89844 58.0781C7.89844 57.5573 7.73177 57.1458 7.39844 56.8438C7.07552 56.5312 6.63281 56.375 6.07031 56.375ZM17.6328 55.75V61H16.0703V59.6562C15.7891 60.125 15.4089 60.4948 14.9297 60.7656C14.4609 61.0365 13.9349 61.1719 13.3516 61.1719C12.8307 61.1719 12.3724 61.0729 11.9766 60.875C11.5807 60.6667 11.2682 60.3802 11.0391 60.0156C10.8099 59.6406 10.6953 59.2188 10.6953 58.75C10.6953 58.0729 10.8984 57.5365 11.3047 57.1406C11.7109 56.7448 12.2943 56.526 13.0547 56.4844L15.2109 56.3281C15.5234 56.3073 15.7422 56.2396 15.8672 56.125C16.0026 56.0104 16.0703 55.8333 16.0703 55.5938V55.5625C16.0703 55.1354 15.8984 54.776 15.5547 54.4844C15.2109 54.1823 14.7891 54.0312 14.2891 54.0312C13.1224 54.0312 12.4818 54.5312 12.3672 55.5312H10.7578C10.8099 54.7083 11.1536 54.0521 11.7891 53.5625C12.4349 53.0625 13.263 52.8125 14.2734 52.8125C14.9297 52.8125 15.5078 52.9375 16.0078 53.1875C16.5182 53.4375 16.9141 53.7865 17.1953 54.2344C17.487 54.6719 17.6328 55.1771 17.6328 55.75ZM12.2734 58.6875C12.2734 59.0625 12.4141 59.3594 12.6953 59.5781C12.987 59.7969 13.3776 59.9062 13.8672 59.9062C14.2839 59.9062 14.6589 59.8125 14.9922 59.625C15.3255 59.4271 15.5859 59.1615 15.7734 58.8281C15.9714 58.4948 16.0703 58.1146 16.0703 57.6875V57.4219L13.6016 57.5781C12.7161 57.6406 12.2734 58.0104 12.2734 58.6875ZM26.7734 49.7969V61H25.2266V59.5469C24.9453 60.0573 24.5755 60.4583 24.1172 60.75C23.6589 61.0312 23.138 61.1719 22.5547 61.1719C21.8672 61.1719 21.263 61 20.7422 60.6562C20.2318 60.3021 19.8307 59.8125 19.5391 59.1875C19.2578 58.5521 19.1172 57.8125 19.1172 56.9688C19.1172 56.125 19.2578 55.3906 19.5391 54.7656C19.8307 54.1406 20.2318 53.6562 20.7422 53.3125C21.263 52.9688 21.8672 52.7969 22.5547 52.7969C23.138 52.7969 23.6589 52.9375 24.1172 53.2188C24.5755 53.5 24.9453 53.8958 25.2266 54.4062V49.7969H26.7734ZM20.7109 56.9688C20.7109 57.8646 20.9089 58.5625 21.3047 59.0625C21.7005 59.5521 22.2526 59.7969 22.9609 59.7969C23.6797 59.7969 24.237 59.5521 24.6328 59.0625C25.0286 58.5625 25.2266 57.8646 25.2266 56.9688C25.2266 56.0833 25.0286 55.3958 24.6328 54.9062C24.237 54.4167 23.6797 54.1719 22.9609 54.1719C22.2526 54.1719 21.7005 54.4167 21.3047 54.9062C20.9089 55.3958 20.7109 56.0833 20.7109 56.9688Z" fill="white"/>
<path d="M36.6016 50.5938V52.0625H33.5547V61H32.0078V52.0625H28.9766V50.5938H36.6016ZM36.6641 56.9688C36.6641 56.1146 36.8203 55.3802 37.1328 54.7656C37.4453 54.151 37.8828 53.6771 38.4453 53.3438C39.0182 53.0104 39.6953 52.8438 40.4766 52.8438C41.2266 52.8438 41.8932 53.0208 42.4766 53.375C43.0599 53.7188 43.513 54.1979 43.8359 54.8125C44.1693 55.4167 44.3359 56.1094 44.3359 56.8906V57.375H38.2734C38.388 59.0104 39.1589 59.8281 40.5859 59.8281C41.1589 59.8281 41.6172 59.7031 41.9609 59.4531C42.3047 59.1927 42.5182 58.8438 42.6016 58.4062H44.2422C43.8984 60.2188 42.6745 61.125 40.5703 61.125C39.7682 61.125 39.0755 60.9583 38.4922 60.625C37.9089 60.2812 37.4557 59.8021 37.1328 59.1875C36.8203 58.5625 36.6641 57.8229 36.6641 56.9688ZM40.4922 54.0625C39.2005 54.0625 38.4661 54.7865 38.2891 56.2344H42.6797C42.6276 55.5781 42.3984 55.0521 41.9922 54.6562C41.5964 54.2604 41.0964 54.0625 40.4922 54.0625ZM45.6484 56.9688C45.6484 56.125 45.8099 55.3906 46.1328 54.7656C46.4557 54.1406 46.9036 53.6562 47.4766 53.3125C48.0495 52.9688 48.7214 52.7969 49.4922 52.7969C50.1901 52.7969 50.8099 52.9323 51.3516 53.2031C51.8932 53.4635 52.3255 53.8385 52.6484 54.3281C52.9818 54.8073 53.1745 55.3802 53.2266 56.0469H51.6328C51.612 55.4531 51.4089 54.9948 51.0234 54.6719C50.638 54.3385 50.1276 54.1719 49.4922 54.1719C48.7734 54.1719 48.2161 54.4167 47.8203 54.9062C47.4349 55.3958 47.2422 56.0833 47.2422 56.9688C47.2422 57.8646 47.4401 58.5625 47.8359 59.0625C48.2318 59.5521 48.7839 59.7969 49.4922 59.7969C50.1172 59.7969 50.6224 59.6458 51.0078 59.3438C51.3932 59.0417 51.6016 58.6146 51.6328 58.0625H53.2266C53.1328 59.0312 52.7474 59.7917 52.0703 60.3438C51.3932 60.8958 50.5339 61.1719 49.4922 61.1719C48.7318 61.1719 48.0599 61 47.4766 60.6562C46.9036 60.3021 46.4557 59.8125 46.1328 59.1875C45.8099 58.5521 45.6484 57.8125 45.6484 56.9688ZM60.1797 56.2656C60.1797 55.5469 60.0026 55.0312 59.6484 54.7188C59.2943 54.3958 58.8203 54.2344 58.2266 54.2344C57.6641 54.2344 57.1901 54.4167 56.8047 54.7812C56.4297 55.1354 56.2422 55.5938 56.2422 56.1562V61H54.6797V49.7969H56.2422V54.2188C56.5339 53.7604 56.9089 53.4115 57.3672 53.1719C57.8255 52.9219 58.2943 52.7969 58.7734 52.7969C59.6276 52.7969 60.3307 53.0677 60.8828 53.6094C61.4453 54.1406 61.7266 54.9167 61.7266 55.9375V61H60.1797V56.2656Z" fill="white"/>
<defs>
<clipPath id="clip0_24_86">
<rect width="40" height="40" fill="white" transform="translate(11.5)"/>
</clipPath>
</defs>
</svg>
